<svg width="800" height="800" viewBox="0 0 800 800" fill="none" xmlns="http://www.w3.org/2000/svg">
<path d="M399.988 0C246.911 0 122.375 124.554 122.375 277.636C122.375 424.99 374.258 769.262 384.983 783.841L394.993 797.463C396.163 799.064 398.027 800 399.988 800C401.98 800 403.832 799.064 405.014 797.463L415.018 783.841C425.749 769.262 677.626 424.99 677.626 277.636C677.626 124.554 553.07 0 399.988 0ZM399.988 178.187C454.837 178.187 499.437 222.789 499.437 277.636C499.437 332.454 454.835 377.084 399.988 377.084C345.172 377.084 300.54 332.454 300.54 277.636C300.54 222.789 345.17 178.187 399.988 178.187Z" fill="#FFFEEF"/>
</svg>
